<?xml version="1.0" standalone="no"?>
<!DOCTYPE svg PUBLIC "-//W3C//DTD SVG 20010904//EN"
 "http://www.w3.org/TR/2001/REC-SVG-20010904/DTD/svg10.dtd">
<svg version="1.0" xmlns="http://www.w3.org/2000/svg"
 width="200.000000pt" height="200.000000pt" viewBox="0 0 200.000000 200.000000"
 preserveAspectRatio="xMidYMid meet">
<metadata>
Created by potrace 1.14, written by Peter Selinger 2001-2017
</metadata>
<g transform="translate(0.000000,200.000000) scale(0.100000,-0.100000)"
fill="#000000" stroke="none">
<path d="M728 1309 c-21 -12 -68 -89 -68 -111 0 -8 -26 -31 -59 -51 -54 -34
-231 -207 -231 -227 0 -4 -13 -3 -28 2 -66 25 -144 -21 -183 -107 -37 -80 -18
-202 40 -262 l22 -23 818 0 c897 0 850 -3 836 58 -10 49 -93 179 -158 250
l-62 67 9 88 c15 141 -14 227 -77 227 -20 0 -100 -41 -137 -70 l-25 -20 -111
39 c-128 45 -192 58 -323 65 -67 4 -97 10 -105 21 -39 53 -116 79 -158 54z
m110 -62 l47 -44 116 -11 c127 -13 270 -46 364 -84 l60 -24 74 48 c40 26 79
48 86 48 32 0 40 -33 42 -172 l3 -139 56 -62 c51 -56 154 -210 154 -229 0 -4
-119 -8 -266 -8 l-265 0 -17 38 c-11 23 -17 63 -17 109 0 62 3 75 24 97 44 47
86 33 174 -59 40 -41 47 -46 42 -25 -10 39 -57 102 -94 127 -40 27 -97 30
-130 7 -54 -38 -76 -154 -46 -239 8 -22 15 -43 15 -47 0 -5 -233 -8 -518 -8
l-518 0 -18 37 c-59 124 -7 278 94 278 33 0 47 -8 87 -46 27 -25 56 -51 66
-58 31 -24 20 13 -19 64 -34 46 -35 47 -18 72 28 43 142 151 206 194 46 31 64
51 79 87 23 52 55 92 76 92 8 0 35 -19 61 -43z"/>
<path d="M641 816 c-21 -26 -9 -51 24 -51 27 0 30 3 30 30 0 23 -5 31 -21 33
-11 2 -26 -4 -33 -12z"/>
<path d="M750 781 c0 -28 26 -44 62 -39 20 3 42 -1 55 -9 25 -17 58 -10 67 14
10 25 -10 39 -30 22 -15 -12 -19 -11 -32 9 -15 22 -42 30 -42 12 0 -5 -9 -10
-19 -10 -11 0 -23 5 -26 10 -11 17 -35 11 -35 -9z"/>
<path d="M1131 772 c-16 -29 20 -72 46 -56 11 7 18 23 18 40 0 24 -5 30 -27
32 -18 2 -30 -3 -37 -16z"/>
</g>
</svg>
